<svg width="484" height="115" viewBox="0 0 484 115" fill="none" xmlns="http://www.w3.org/2000/svg">
<path d="M43.327 99.7519V107.872H3.57V14.1759H11.928V99.7519H43.327ZM15.499 10.6059H13.714H0V111.442H46.897V96.1819H15.498L15.499 10.6059Z" fill="#AF9778"/>
<path d="M80.6653 107.872H72.3073V14.1758H80.6653V107.872ZM68.7373 10.6058V111.442H84.2353V10.6058H82.4503H68.7373Z" fill="#AF9778"/>
<path d="M222.902 93.6689C221.642 96.8479 219.808 99.7909 217.529 102.297C215.253 104.802 212.526 106.871 209.484 108.31C206.44 109.749 203.084 110.563 199.507 110.564C196.276 110.563 193.091 109.913 190.13 108.723C187.17 107.534 184.435 105.805 182.11 103.663C179.785 101.523 177.868 98.9639 176.537 96.1179C175.342 93.5649 174.617 90.7829 174.479 87.8389H183.897C184.034 89.4789 184.492 91.0419 185.204 92.4709C186.063 94.1969 187.283 95.7339 188.742 97.0189L188.741 97.0179C190.2 98.3049 191.897 99.3359 193.725 100.052C195.553 100.768 197.514 101.168 199.501 101.169C201.781 101.169 203.933 100.588 205.854 99.5939C207.779 98.5999 209.481 97.1969 210.899 95.5399V95.5409C212.318 93.8829 213.449 91.9729 214.233 89.9459C215.009 87.9399 215.444 85.8169 215.454 83.7059L215.455 83.6889V83.6589L215.456 83.6489V83.6379V83.6249C215.455 81.4109 215.169 79.3929 214.633 77.5469C214.099 75.7019 213.315 74.0319 212.346 72.5159C211.374 70.9959 210.212 69.6259 208.917 68.3689C207.622 67.1119 206.195 65.9659 204.68 64.8869C201.648 62.7269 198.277 60.8449 194.921 58.9109C191.566 56.9789 188.228 54.9979 185.261 52.6939C183.285 51.1599 181.474 49.4769 179.925 47.5699C178.376 45.6619 177.088 43.5319 176.148 41.0709C175.078 38.2709 174.458 35.0379 174.453 31.2189V31.1809C174.454 28.2429 175.075 25.5109 176.182 23.0519C177.29 20.5939 178.886 18.4089 180.845 16.5899C184.765 12.9459 190.133 10.7599 195.886 10.7609C201.639 10.7629 206.77 12.9399 210.47 16.5699L210.586 16.6839L210.471 16.5709C212.32 18.3849 213.811 20.5649 214.843 23.0239C215.755 25.1989 216.306 27.5929 216.422 30.1529H207.008C206.908 28.9229 206.629 27.7609 206.186 26.6989C205.34 24.6669 203.902 23.0079 202.105 21.8839C200.309 20.7559 198.162 20.1559 195.886 20.1559C192.597 20.1569 189.6 21.3299 187.412 23.2989L187.411 23.2999C186.319 24.2839 185.427 25.4669 184.809 26.8009C184.19 28.1339 183.849 29.6199 183.849 31.1769V31.1789C183.848 33.4609 184.222 35.4869 184.902 37.2859C185.581 39.0859 186.564 40.6599 187.751 42.0559C188.938 43.4559 190.329 44.6799 191.838 45.8119C193.347 46.9429 194.975 47.9829 196.655 49.0049L196.662 49.0089L196.669 49.0129C202.05 52.2189 207.39 55.3449 211.932 58.9549C214.202 60.7569 216.275 62.6819 218.059 64.7899C219.843 66.8999 221.34 69.1919 222.473 71.7509C223.981 75.1589 224.848 79.0409 224.851 83.6129V83.6289V83.6419C224.848 87.0869 224.161 90.4939 222.902 93.6689ZM225.738 70.3059C224.452 67.4009 222.757 64.8159 220.784 62.4839C218.811 60.1519 216.561 58.0719 214.152 56.1589C209.334 52.3349 203.866 49.1489 198.506 45.9519C196.873 44.9589 195.34 43.9759 193.98 42.9559C192.618 41.9349 191.432 40.8779 190.473 39.7459C189.51 38.6089 188.764 37.4059 188.242 36.0249C187.723 34.6429 187.421 33.0789 187.419 31.1789C187.421 30.1359 187.643 29.1779 188.048 28.3019C188.454 27.4269 189.046 26.6339 189.802 25.9509L189.801 25.9529C191.305 24.5969 193.45 23.7259 195.886 23.7269C196.987 23.7269 198.011 23.9189 198.923 24.2689C200.294 24.7949 201.415 25.6669 202.21 26.8199C203.001 27.9759 203.48 29.4219 203.482 31.1789V33.7229H220.018V31.1529L220.017 31.1239C220.011 27.7319 219.346 24.5299 218.135 21.6429C216.92 18.7449 215.156 16.1649 212.971 14.0219L212.972 14.0229C208.602 9.7299 202.547 7.18891 195.886 7.19091C189.227 7.19191 183.001 9.71291 178.415 13.9749C176.121 16.1049 174.237 18.6769 172.927 21.5859C171.617 24.4929 170.883 27.7349 170.883 31.1789V31.1829C170.882 35.4039 171.573 39.1039 172.813 42.3449C173.896 45.1839 175.394 47.6549 177.154 49.8209C178.914 51.9879 180.933 53.8529 183.071 55.5139L183.072 55.5149C186.278 58.0019 189.76 60.0569 193.14 62.0049C196.52 63.9499 199.8 65.7909 202.607 67.7939L202.665 67.8359L202.608 67.7949C204.013 68.7949 205.299 69.8319 206.43 70.9299C207.562 72.0289 208.538 73.1879 209.338 74.4379C210.138 75.6929 210.767 77.0359 211.204 78.5409C211.639 80.0439 211.883 81.7129 211.886 83.6199V83.6309L211.885 83.6409C211.886 85.2799 211.543 87.0069 210.903 88.6579C210.265 90.3089 209.332 91.8819 208.187 93.2179C207.04 94.5589 205.683 95.6649 204.217 96.4219C202.745 97.1799 201.176 97.5969 199.501 97.5979C197.998 97.5989 196.467 97.2919 195.027 96.7279C193.587 96.1639 192.239 95.3429 191.103 94.3409L191.102 94.3399C189.962 93.3359 189.033 92.1529 188.4 90.8799C187.765 89.6019 187.42 88.2439 187.419 86.8139V84.2689H170.884L170.883 86.8109V86.8149C170.882 90.6799 171.762 94.3399 173.303 97.6319C174.844 100.925 177.044 103.852 179.691 106.29C182.338 108.727 185.435 110.684 188.799 112.036C192.163 113.387 195.796 114.133 199.507 114.134C203.63 114.135 207.52 113.19 211.011 111.537C214.504 109.885 217.599 107.528 220.171 104.699C222.743 101.869 224.801 98.5639 226.221 94.9849C227.64 91.4059 228.42 87.5519 228.421 83.6269V83.6059V83.5799C228.417 78.5679 227.449 74.1639 225.738 70.3059Z" fill="#AF9778"/>
<path d="M413.332 107.872H403.617L370.399 34.5598V107.872H361.499V14.1758H371.028L404.25 88.2908L404.251 14.1758H413.332V107.872ZM400.681 10.6058V71.5998L373.34 10.6058H357.928V111.442H373.969V51.0888L401.315 111.442H416.902V10.6058H415.117H400.681Z" fill="#AF9778"/>
<path d="M155.191 107.872H145.476L112.258 34.5598V107.872H103.358V14.1758H112.886L146.109 88.2908L146.11 14.1758H155.191V107.872ZM142.54 10.6058V71.6008L115.199 10.6058H99.7869V111.442H115.828V51.0888L143.174 111.442H158.761V10.6058H156.976H142.54Z" fill="#AF9778"/>
<path d="M281.751 22.838H261.377V107.872H252.295V22.838H231.921V14.134H281.751V22.838ZM285.321 10.563H228.351V26.408H230.136H248.725V111.442H264.947V109.274V26.408H285.321V10.563Z" fill="#AF9778"/>
<path d="M429.866 14.1337H479.696V22.8377H459.322V107.872H450.24V22.8377H429.866V14.1337ZM426.296 12.3486V26.4087H446.67V111.442H462.892V109.275V26.4087H483.267V10.5637H426.296V12.3486Z" fill="#AF9778"/>
<path d="M48.6059 10.266C48.4149 10.814 48.1219 11.408 47.7479 12.031L47.7359 12.052L43.7689 19.118H43.6339H40.5439L41.6189 13.428L40.7449 12.76C40.1469 12.302 39.6569 11.712 39.3159 11.033C38.9759 10.353 38.7839 9.58799 38.7839 8.76199C38.7839 8.01999 38.9289 7.32999 39.1869 6.70699C39.5739 5.77199 40.2189 4.98699 41.0239 4.43599C41.8309 3.88699 42.7889 3.57099 43.8369 3.56999C44.5359 3.56999 45.1929 3.71099 45.7939 3.96799C46.6949 4.35199 47.4689 4.99899 48.0169 5.82499C48.5649 6.65199 48.8889 7.64899 48.8899 8.76199C48.8899 9.22099 48.7979 9.71699 48.6059 10.266ZM48.6629 1.48799C47.2869 0.546988 45.6149 -0.00101144 43.8369 -1.14441e-05C42.6519 -0.00101144 41.5119 0.241989 40.4779 0.683989C38.9259 1.34599 37.6099 2.45199 36.6819 3.84999C35.7529 5.24699 35.2129 6.94499 35.2139 8.76199C35.2129 10.147 35.5399 11.468 36.1249 12.633C36.5359 13.454 37.0769 14.197 37.7189 14.84L36.2349 22.688H39.9289H43.6339H45.8589L50.8359 13.823C51.2879 13.064 51.6839 12.277 51.9759 11.445C52.2719 10.599 52.4599 9.69999 52.4599 8.76199C52.4599 7.55099 52.2209 6.39199 51.7849 5.34099C51.1319 3.76299 50.0409 2.42999 48.6629 1.48799Z" fill="#AF9778"/>
<path d="M303.83 81.2469L313.72 53.3329L323.509 81.2469H303.83ZM312.046 47.3669L298.777 84.8169H328.545L313.737 42.5939L312.046 47.3669Z" fill="#AF9778"/>
<path d="M336.293 107.872L331.409 93.6378H295.945L291.06 107.872H281.939L313.745 16.6308L345.422 107.872H336.293ZM349.317 108.205L314.901 9.07777H312.596L276.913 111.442H293.61L298.494 97.2078H328.859L333.743 111.442H350.408L349.32 108.214L349.317 108.205Z" fill="#AF9778"/>
</svg>
