<?xml version="1.0" encoding="UTF-8"?>
<svg xmlns="http://www.w3.org/2000/svg" version="1.1" viewBox="0 0 952.6 124.6">
  <!-- Generator: Adobe Illustrator 28.7.1, SVG Export Plug-In . SVG Version: 1.2.0 Build 142)  -->
  <g>
    <g id="Layer_1">
      <g>
        <path d="M47.4,58.4c-4.8,0-8.5,3.6-8.5,8,0,2.2.9,4.3,2.5,5.7,1.5,1.5,3.6,2.3,6,2.3,4.8,0,8.6-3.6,8.6-8.1,0-4.4-3.8-8-8.6-8ZM47.4,72c-3.2,0-5.7-2.5-5.7-5.6,0-3.1,2.5-5.6,5.7-5.6,3.2,0,5.7,2.5,5.7,5.6,0,3.1-2.5,5.6-5.7,5.6Z"/>
        <path d="M27.1,69.5c-1.3,1.4-3.3,2.5-5.6,2.5-3.3,0-5.5-2.5-5.5-5.6,0-3.1,2.1-5.6,5.4-5.6,1.8,0,3.9.8,5.2,2h0s1.8-1.8,1.8-1.8h0c-1.7-1.6-4.3-2.7-7.1-2.7-2.4,0-4.5.9-5.9,2.4-1.4,1.5-2.3,3.5-2.3,5.6,0,2.2.8,4.2,2.3,5.7,1.4,1.5,3.5,2.3,6,2.3,3.3,0,5.8-1.5,7.4-3.1h0s-1.8-1.8-1.8-1.8h0Z"/>
        <path d="M200.7,63.5c0-1.2-.4-2.2-1.2-3.1-1-1-2.4-1.6-4.4-1.6h-8.3v15.1h2.7v-5.8h5.2l3.2,5.8h3.1l-3.6-6.1c2-.7,3.3-2.3,3.3-4.3ZM189.5,61.3h5.6c.8,0,1.6,0,2.3.8.4.4.6.9.6,1.4,0,1.2-1.1,2.3-2.4,2.3h-6.1v-4.5Z"/>
        <polygon points="85.3 73.9 88 73.9 88 73.9 88 67.3 93.7 67.3 93.7 64.8 88 64.8 88 61.3 97.5 61.3 97.5 58.8 85.3 58.8 85.3 73.9"/>
        <polygon points="137.6 67.3 143.4 67.3 143.4 64.8 143.3 64.8 137.6 64.8 137.6 61.3 147.2 61.3 147.2 58.8 134.9 58.8 134.9 73.9 147.7 73.9 147.7 71.5 137.6 71.5 137.6 67.3"/>
        <path d="M171.4,58.9v9.7c0,2.2-1.7,3.4-4,3.4-2.3,0-4-1.2-4-3.4v-9.7h-2.7v9.7c0,1.9.7,3.3,1.9,4.3,1.2,1,2.9,1.5,4.8,1.5s3.6-.5,4.8-1.5c1.2-1,1.9-2.5,1.9-4.3v-9.7h-2.7Z"/>
        <polygon points="67.9 73.9 70.6 73.9 70.6 73.9 70.6 58.8 67.9 58.8 67.9 73.9"/>
        <polygon points="110.1 73.9 112.8 73.9 112.8 73.9 112.8 67.3 118.6 67.3 118.6 64.8 112.8 64.8 112.8 61.3 122.3 61.3 122.3 58.8 110.1 58.8 110.1 73.9"/>
        <path d="M932.5,67.8c2-.7,3.3-2.3,3.3-4.3,0-1.2-.4-2.2-1.2-3.1-1-1-2.4-1.6-4.4-1.6h-8.3v15.1h2.7v-5.8h5.2l3.2,5.8h3.1l-3.6-6.1ZM924.6,61.3h5.6c.8,0,1.6,0,2.3.8.4.4.6.9.6,1.4,0,1.2-1.1,2.3-2.4,2.3h-6.1v-4.5Z"/>
        <path d="M782.4,65.6c1-.5,1.8-1.7,1.8-3,0-.9-.4-1.8-1-2.4-.7-.7-1.9-1.3-3.6-1.3h-9.1v15.1h9.3c2.2,0,3.2-.6,3.9-1.3,1-1,1.4-2.1,1.4-3.2,0-1.8-.9-3.3-2.6-3.8ZM780.7,64.5c-.4.4-.9.5-1.5.5h-6.2v-3.8h6.2c.7,0,1.2.2,1.6.6.3.3.5.8.5,1.2,0,.5-.2,1.1-.6,1.4ZM781.6,70.9c-.4.4-1.1.7-1.8.7h-6.7v-4.3h6.7c.7,0,1.4.3,1.8.8.4.4.6.8.6,1.4,0,.5-.2,1.1-.6,1.5Z"/>
        <path d="M838.9,63.5c0-1.2-.4-2.2-1.2-3.1-1-1-2.4-1.6-4.4-1.6h-8.3v15.1h2.7v-5.8h5.2l3.2,5.8h3.1l-3.6-6.1c2-.7,3.3-2.3,3.3-4.3ZM827.7,61.3h5.6c.8,0,1.6,0,2.3.8.4.4.6.9.6,1.4,0,1.2-1.1,2.3-2.4,2.3h-6.1v-4.5Z"/>
        <polygon points="879.9 73.9 882.6 73.9 882.6 73.9 882.6 58.8 879.9 58.8 879.9 73.9"/>
        <path d="M864.6,65.6c1-.5,1.8-1.7,1.8-3,0-.9-.4-1.8-1-2.4-.7-.7-1.9-1.3-3.6-1.3h-9.1v15.1h9.3c2.2,0,3.2-.6,3.9-1.3,1-1,1.4-2.1,1.4-3.2,0-1.8-.9-3.3-2.6-3.8ZM863,64.5c-.4.4-.9.5-1.5.5h-6.2v-3.8h6.2c.7,0,1.2.2,1.6.6.3.3.5.8.5,1.2,0,.5-.2,1.1-.6,1.4ZM863.8,70.9c-.4.4-1.1.7-1.8.7h-6.7v-4.3h6.7c.7,0,1.4.3,1.8.8.4.4.6.8.6,1.4,0,.5-.2,1.1-.6,1.5Z"/>
        <polygon points="899.3 67.3 905 67.3 905 64.8 905 64.8 899.3 64.8 899.3 61.3 908.9 61.3 908.9 58.8 896.6 58.8 896.6 73.9 909.4 73.9 909.4 71.5 899.3 71.5 899.3 67.3"/>
        <path d="M803.3,58.8l-7,15.1h2.8l1.8-4h7.1l1.8,4h3l-7-15.1h-2.4ZM804.4,62h0l2.5,5.7h-5.1l2.5-5.7Z"/>
        <path d="M269.8,14.9h-15.5v100.8h46.9v-15.3h-31.4V14.9ZM297.6,104v8.1h-39.8V18.4h8.4v85.6h31.4Z"/>
        <path d="M323,14.9v100.8h15.5V14.9h-15.5ZM335,112.1h-8.4s0-93.7,0-93.7h8.4v93.7Z"/>
        <path d="M480,74.6c-1.3-2.9-3-5.5-5-7.8-2-2.3-4.2-4.4-6.6-6.3-4.8-3.8-10.3-7-15.6-10.2-1.6-1-3.2-2-4.5-3-1.4-1-2.5-2.1-3.5-3.2h0c-1-1.1-1.7-2.3-2.2-3.7h0c-.5-1.4-.8-2.9-.8-4.8,0-1,.2-2,.6-2.9.4-.9,1-1.7,1.8-2.4h0c1.5-1.4,3.6-2.2,6.1-2.2,1.1,0,2.1.2,3,.5,1.4.5,2.5,1.4,3.3,2.6.8,1.2,1.3,2.6,1.3,4.4v2.5h16.5v-2.6h0c0-3.4-.7-6.6-1.9-9.5-1.2-2.9-3-5.5-5.2-7.6h0c-4.4-4.3-10.4-6.8-17.1-6.8-6.7,0-12.9,2.5-17.5,6.8h0c-2.3,2.1-4.2,4.7-5.5,7.6-1.3,2.9-2,6.1-2,9.6h0c0,4.2.7,7.9,1.9,11.2h0c1.1,2.8,2.6,5.3,4.3,7.5,1.8,2.2,3.8,4,5.9,5.7h0c3.2,2.5,6.7,4.5,10.1,6.5,3.4,1.9,6.7,3.8,9.5,5.8h0s0,0,0,0c1.4,1,2.7,2,3.8,3.1,1.1,1.1,2.1,2.3,2.9,3.5.8,1.3,1.4,2.6,1.9,4.1.4,1.5.7,3.2.7,5.1h0s0,0,0,0c0,1.6-.3,3.4-1,5-.6,1.7-1.6,3.2-2.7,4.6h0c-1.1,1.3-2.5,2.4-4,3.2-1.5.8-3,1.2-4.7,1.2-1.5,0-3-.3-4.5-.9-1.4-.6-2.8-1.4-3.9-2.4h0c-1.1-1-2.1-2.2-2.7-3.5-.6-1.3-1-2.6-1-4.1v-2.5h-16.5v2.5s0,0,0,0c0,3.9.9,7.5,2.4,10.8,1.5,3.3,3.7,6.2,6.4,8.7,2.6,2.4,5.7,4.4,9.1,5.7,3.4,1.4,7,2.1,10.7,2.1,4.1,0,8-.9,11.5-2.6,3.5-1.7,6.6-4,9.2-6.8,2.6-2.8,4.6-6.1,6-9.7,1.4-3.6,2.2-7.4,2.2-11.4h0s0,0,0,0c0-5-1-9.4-2.7-13.3ZM477.2,97.9c-1.3,3.2-3.1,6.1-5.4,8.6-2.3,2.5-5,4.6-8,6-3,1.4-6.4,2.3-10,2.3-3.2,0-6.4-.7-9.4-1.8-3-1.2-5.7-2.9-8-5.1-2.3-2.1-4.2-4.7-5.6-7.5-1.2-2.6-1.9-5.3-2.1-8.3h9.4c.1,1.6.6,3.2,1.3,4.6.9,1.7,2.1,3.3,3.5,4.5h0c1.5,1.3,3.2,2.3,5,3,1.8.7,3.8,1.1,5.8,1.1,2.3,0,4.4-.6,6.4-1.6,1.9-1,3.6-2.4,5-4.1h0c1.4-1.7,2.5-3.6,3.3-5.6.8-2,1.2-4.1,1.2-6.2h0s0,0,0,0h0s0,0,0,0h0s0,0,0,0h0c0-2.2-.3-4.2-.8-6.1-.5-1.8-1.3-3.5-2.3-5h0c-1-1.5-2.1-2.9-3.4-4.1-1.3-1.3-2.7-2.4-4.2-3.5-3-2.2-6.4-4-9.8-6-3.4-1.9-6.7-3.9-9.7-6.2-2-1.5-3.8-3.2-5.3-5.1-1.5-1.9-2.8-4-3.8-6.5h0c-1.1-2.8-1.7-6-1.7-9.9h0c0-3,.6-5.7,1.7-8.2,1.1-2.5,2.7-4.6,4.7-6.5h0c3.9-3.6,9.3-5.8,15-5.8,5.8,0,10.9,2.2,14.6,5.8h.1c0,.1-.1,0-.1,0,1.8,1.8,3.3,4,4.4,6.5.9,2.2,1.5,4.6,1.6,7.1h-9.4c-.1-1.2-.4-2.4-.8-3.5-.8-2-2.3-3.7-4.1-4.8-1.8-1.1-3.9-1.7-6.2-1.7-3.3,0-6.3,1.2-8.5,3.1h0c-1.1,1-2,2.2-2.6,3.5-.6,1.3-1,2.8-1,4.4h0c0,2.3.4,4.3,1.1,6.1h0c.7,1.8,1.7,3.4,2.8,4.8,1.2,1.4,2.6,2.6,4.1,3.8,1.5,1.1,3.1,2.2,4.8,3.2h0s0,0,0,0c5.4,3.2,10.7,6.3,15.3,9.9,2.3,1.8,4.3,3.7,6.1,5.8,1.8,2.1,3.3,4.4,4.4,7,1.5,3.4,2.4,7.3,2.4,11.9h0s0,0,0,0c0,3.4-.7,6.9-1.9,10Z"/>
        <polygon points="459.3 69.1 459.3 69.1 459.3 69.1 459.3 69.1"/>
        <path d="M655,14.9v61l-27.3-61h-15.4v100.8h16v-60.4l27.3,60.4h15.6V14.9h-16.2ZM667.6,112.1h-9.7l-33.2-73.3v73.3h-8.9V18.4h9.5l33.2,74.1V18.4h9.1v93.7Z"/>
        <path d="M396.8,14.9v61l-27.3-61h-15.4v100.8h16v-60.4l27.3,60.4h15.6V14.9h-16.2ZM409.5,112.1h-9.7l-33.2-73.3v73.3h-8.9V18.4h9.5l33.2,74.1V18.4h9.1v93.7Z"/>
        <path d="M539.6,14.8h-57v15.8h20.4v85h16.2V30.7h20.4v-15.8ZM536,27.1h-20.4v85h-9.1V27.1h-20.4v-8.7h49.8v8.7Z"/>
        <path d="M680.6,16.6v14.1h20.4v85h16.2V30.7h20.4v-15.8h-57v1.8ZM684.2,18.4h49.8v8.7h-20.4v85h-9.1V27.1h-20.4v-8.7Z"/>
        <path d="M303,5.7c-1.4-.9-3-1.5-4.8-1.5-1.2,0-2.3.2-3.4.7-1.6.7-2.9,1.8-3.8,3.2-.9,1.4-1.5,3.1-1.5,4.9,0,1.4.3,2.7.9,3.9.4.8,1,1.6,1.6,2.2l-1.5,7.8h9.6l5-8.9h0c.5-.8.8-1.5,1.1-2.4.3-.8.5-1.7.5-2.7,0-1.2-.2-2.4-.7-3.4-.7-1.6-1.7-2.9-3.1-3.9ZM302.9,14.5c-.2.5-.5,1.1-.9,1.8h0s-4,7.1-4,7.1h-3.2l1.1-5.7-.9-.7c-.6-.5-1.1-1-1.4-1.7-.3-.7-.5-1.4-.5-2.3,0-.7.1-1.4.4-2.1.4-.9,1-1.7,1.8-2.3.8-.5,1.8-.9,2.8-.9.7,0,1.4.1,2,.4.9.4,1.7,1,2.2,1.9.5.8.9,1.8.9,2.9,0,.5,0,1-.3,1.5Z"/>
        <path d="M566.3,51.6l-13.3,37.4h29.8l-14.8-42.2-1.7,4.8ZM558.1,85.5l9.9-27.9,9.8,27.9h-19.7Z"/>
        <path d="M603.6,112.5l-34.4-99.1h-2.3l-35.7,102.4h16.7l4.9-14.2h30.4l4.9,14.2h16.7l-1.1-3.2h0ZM590.6,112.1l-4.9-14.2h-35.5l-4.9,14.2h-9.1l31.8-91.2,31.7,91.2h-9.1Z"/>
      </g>
    </g>
  </g>
</svg>